<?xml version="1.0" encoding="UTF-8"?>
<svg id="Layer_2" data-name="Layer 2" xmlns="http://www.w3.org/2000/svg" viewBox="0 0 408.01 138.53">
  <g id="Layer_1-2" data-name="Layer 1">
    <g>
      <g>
        <path d="M110.17,32.02v3.55h7.1v3.55h3.55v3.55h3.55v21.3h-3.55v3.55h-3.55v3.55h-3.55v3.55h-7.1v3.55h-21.3v-3.55h-7.1v-3.55h-3.55v-3.55h-3.55v-7.1s-3.55,0-3.55,0v-24.85h3.55v-7.1h3.55v-3.55h3.55v-3.55h3.55v-3.55h3.55s0-3.55,0-3.55h7.1v3.55h-3.55v3.55h-3.55v3.55h-3.55v7.1h-3.55v24.85h3.55v7.1h3.55v3.55h3.55v3.55h14.2v-28.4h-3.55v14.2h-3.55v3.55h-3.55v3.55h-3.55v-31.95h-3.55v-3.55h3.55v-3.55h3.55v-3.55h3.55v-3.55h3.55v21.3h3.55v-3.55h3.55v-3.55h3.55ZM95.97,14.27h-3.55v-3.55h3.55v3.55ZM103.07,17.81h-3.55s0-3.55,0-3.55h3.55v-3.55h3.55v3.55s3.55,0,3.55,0v3.55h10.65v7.1h-3.55v3.55h-3.55v3.55h-3.55v-3.55h-3.55v-7.1h-3.55v-3.55ZM106.62,39.12v10.65h7.1v-10.65h-7.1ZM106.62,56.87h7.1v-3.55h-7.1s0,3.55,0,3.55ZM113.72,67.52v-7.1h-7.1v10.65h3.55v-3.55h3.55ZM124.37,17.81h-3.55v-3.55h3.55v3.55Z"/>
        <path d="M149.32,71.07v3.55h-7.1v-3.55h-3.55v-3.55h-3.55v-3.55h-3.55v-7.1h-3.55v-21.3h3.55v-7.1h3.55v-3.55h3.55v-3.55h3.55v7.1h-3.55v7.1h-3.55v21.3h3.55v7.1h3.55v3.55h3.55v3.55h3.55ZM145.77,21.36h-3.55v-3.55h3.55v3.55ZM149.32,24.92v-3.55h3.55v-3.55h3.55v39.05h-3.55v3.55h-3.55v3.55h-3.55V24.92h3.55ZM191.92,21.26v35.6h-3.55v7.1h-3.55v3.55h-3.55v3.55h-3.55v3.55h-7.1v3.55h-21.3v-3.55h10.65V21.36h3.55v17.75h17.75v-10.65h-3.55v-3.55h-7.1v-3.55h-7.1v-3.55h3.55v-7.19h3.55v-3.63h7.1v3.55h3.55v3.55h3.55v3.55h3.55s0,3.62,0,3.62h3.55ZM181.27,49.77v-7.1h-17.75v7.1h17.75ZM170.62,71.07v-3.55h3.55v-3.55h3.55v-3.55h3.55v-7.1h-17.75v21.3s3.55,0,3.55,0v-3.55h3.55Z"/>
        <path d="M188.09,78.17h3.55v3.55h-3.55v-3.55ZM252,17.73h-3.55v3.55h-3.55v46.15h3.55v3.55h-3.55s0,3.55,0,3.55h-3.55v3.55s-7.1,0-7.1,0v-3.55h-3.55v-3.55h-3.55v-7.1h-3.55v-7.1h-3.55v-7.1h-3.55v-7.1h-3.55v-7.1h-3.55v-7.1h-3.55v39.15h7.1v3.55h7.1v3.55h-3.55v3.55h-3.55v3.55h-7.1v-3.55h-14.2v-3.55h3.55v-3.55h7.1v-21.4h-3.55v3.55h-3.55v-10.65h3.55v-3.55h3.55v-14.2h-7.1v-3.55h3.55v-3.55h3.55v-3.55h3.55v-3.55h7.1v3.55h3.55v7.1h3.55s0,7.1,0,7.1h3.55v7.1h3.55v7.1h3.55v7.1h3.55v7.1h3.55v7.1h3.55V24.83h-10.65v-3.55h-7.1s0-3.55,0-3.55h3.55v-3.55h3.55v-3.55h7.1v3.55h14.2v3.55ZM255.55,10.63v3.55h-3.55v-3.55h3.55Z"/>
        <path d="M252.35,24.92h-3.55v-3.55h3.55v3.55ZM252.35,17.81h3.55v-3.55h3.55v-3.55h21.3v3.55h-3.55v3.55h-3.55v3.55h-21.3v-3.55ZM252.35,74.62h3.55v3.55h-3.55v-3.55ZM284.3,17.81v28.4h3.55v3.55h-3.55v14.2h10.65v3.55h7.1v3.55h3.55v3.55h-3.55v3.55h-3.55v3.55h-3.55v-3.55h-7.1v-3.55h-31.95v-3.55h3.55v-3.55h10.65v-3.55h10.65V17.81h3.55ZM259.45,49.77v3.55h-3.55v-10.65h3.55v-3.55h3.55v-7.1h3.55v-3.55h3.55v-3.55h7.1v3.55h-3.55v31.95h-7.1v3.55h-7.1v-3.55h3.55v-10.65h-3.55ZM284.3,10.71h-3.55v-3.55s3.55,0,3.55,0v3.55ZM305.6,14.27v7.1h-3.55v3.55h-3.55v3.55s-3.55,0-3.55,0v-7.1h-3.55v-3.55h-7.1v-3.55h7.1v-3.55h10.65v3.55h3.55ZM291.4,46.22h-3.55v-3.55h3.55v-3.55h10.65v3.55h3.55v7.1h-3.55v3.55h-3.55s0,3.55,0,3.55h-3.55v-7.1h-3.55v-3.55Z"/>
      </g>
      <g>
        <path d="M3.55,81.73H0v-3.55h3.55v3.55ZM3.55,74.63h3.55v-3.55h3.55v-3.55h10.65v3.55h-3.55v3.55h-3.55v3.55H3.55v-3.55ZM3.55,134.98h3.55v3.55h-3.55v-3.55ZM31.95,106.58v21.3h-3.55v3.55h-3.55v3.55H7.1v-3.55h3.55v-3.55h3.55v-3.55h14.2v-49.7s3.55,0,3.55,0v24.85h7.1v-28.4h-3.55v-3.55h7.1v3.55h3.55v3.55h3.55v42.6h-3.55v3.55h-3.55v3.55h-3.55v-17.75h-7.1ZM21.3,74.63h3.55v39.05h-3.55v3.55h-3.55v3.55h-3.55v-17.75h-3.55v3.55h-3.55v-10.65h3.55v-3.55h3.55v-10.65h3.55v-3.55h3.55v-3.55ZM24.85,67.53h-3.55v-3.55h3.55v3.55ZM28.4,71.08v3.55h-3.55v-3.55h3.55ZM35.5,74.63h-3.55v-3.55h3.55v3.55ZM35.5,134.98h3.55v3.55h-3.55v-3.55ZM81.65,127.88v3.55h-3.55v3.55h-3.55v3.55h-3.55v-3.55h-3.55v-3.55h-3.55v-24.85h-7.1v21.3h-3.55v3.55h-3.55v3.55h-10.65v-3.55h3.55v-3.55h3.55v-3.55h7.1v-49.7s3.55,0,3.55,0v24.85h7.1v-28.4h-3.55v-3.55h7.1v3.55h3.55v3.55h3.55v49.7h3.55v3.55h3.55ZM60.35,74.63h-3.55v-3.55h3.55v3.55Z"/>
        <path d="M95.85,131.43h3.55v3.55h-10.65v-3.55h-3.55v-3.55s-3.55,0-3.55,0v-17.75h3.55v-3.55h3.55v-3.55h10.65v3.55h-3.55v3.55h-3.55v17.75h3.55v3.55ZM85.2,92.38h3.55v3.55h-3.55v-3.55ZM117.15,131.43v3.55h-10.65v-3.55h-7.1v-3.55h3.55v-17.75h-3.55v-3.55h3.55s0-10.65,0-10.65h-3.55v-3.55h-10.65v-3.55h3.55v-3.55h14.2v3.55h3.55v3.55h3.55v39.05h3.55Z"/>
        <path d="M163.41,134.98h-14.2v-3.55h-3.55v-3.55s-3.55,0-3.55,0v-3.55h-3.55v-3.55h-7.1v10.65h3.55v3.55h-10.65v-3.55h-3.55v-53.25h-3.55v-3.55h3.55v-3.55h3.55v-3.55h7.1v28.4h3.55v3.55h-3.55v17.75h7.1v-3.55h3.55v3.55h3.55v3.55s3.55,0,3.55,0v3.55h3.55v3.55h3.55v3.55h7.1v3.55ZM120.8,131.43h3.55v3.55h-3.55v-3.55ZM138.56,95.93h-3.55v-3.55h3.55v3.55ZM138.56,92.38v-3.55h3.55v-3.55h7.1v3.55h3.55v17.75h-3.55v3.55h-3.55v3.55h-3.55v-21.3h-3.55Z"/>
        <path d="M173.35,120.78v7.1h3.55v3.55h7.1v3.55h-14.2v-3.55h-3.55v-3.55h-3.55v-7.1h-3.55v-24.86h3.55v-7.1h3.55v-3.55h7.1v3.55h-3.55v31.96h3.55ZM191.1,88.82v17.76h-3.55v3.55h-3.55v3.55h-3.55v-24.86h-3.55v-3.55h-3.55v-3.55h10.65s0,3.55,0,3.55h3.55v3.55h3.55ZM173.35,117.23h3.55v3.55h-3.55v-3.55ZM176.9,113.68h3.55v3.55h-3.55v-3.55ZM187.55,131.43h-3.55v-3.55h3.55v3.55ZM191.1,127.88h-3.55v-3.55h3.55v3.55Z"/>
        <path d="M208.85,92.38v3.55h-3.55v35.5h3.55v3.55h-10.65v-3.55h-3.55v-35.5h-3.55v-3.55h3.55v-3.55h3.55v-3.55h7.1v7.1h3.55ZM191.1,131.43h3.55v3.55h-3.55v-3.55ZM226.6,88.83v7.1h-3.55v3.55h-3.55v3.55h-3.55v-7.1h-3.55v-3.55h-3.55v-3.55h3.55v-3.55h10.65v3.55h3.55Z"/>
        <path d="M230.15,92.38h3.55v7.1h3.55v3.55h14.2v3.55s7.1,0,7.1,0v3.55h3.55v10.65h-3.55v3.55h-3.55v3.55h-3.55v-10.65h-3.55v-3.55h-14.2v-3.55h-3.55v-3.55h-3.55v-10.65h3.55v-3.55ZM226.6,131.43h3.55v3.55h-3.55v-3.55ZM247.9,127.88h3.55v3.55h-3.55v3.55h-3.55v3.55h-3.55v-3.55h-3.55v-3.55h-7.1v-3.55h3.55v-3.55h3.55v-3.55h7.1v3.55h3.55v3.55ZM240.8,92.38h-7.1v-3.55h3.55v-3.55h14.2v3.55h7.1v3.55h-3.55v3.55h-14.2v-3.55ZM262.1,88.83h-3.55v-3.55h3.55v3.55Z"/>
        <path d="M341.26,124.33v-3.55h3.55v-3.55h3.55v-3.55h3.55v7.1h-3.55v3.55h-3.55v3.55h-3.55v3.55h-7.1v3.55h-21.3v-3.55h-7.1v-3.55h-3.55v-3.55h-3.55v-7.1h-3.55v-24.85h3.55v-7.1h3.55v-3.55s3.55,0,3.55,0v-3.55h3.55v-3.55h3.55v-3.55h7.1v3.55h-3.55v3.55s-3.55,0-3.55,0v3.55s-3.55,0-3.55,0v7.1h-3.55v24.85h3.55v7.1h3.55v3.55h3.55v3.55h17.75v-49.7h-3.55v-3.55h-3.55v-3.55h3.55v-3.55h3.55v3.55h3.55v3.55h10.65v7.1h-3.55v3.55h-7.1v39.05h3.55ZM323.51,74.63h3.55v39.05h-3.55v3.55h-3.55v3.55h-3.55v-31.95h-3.55v-3.55h3.55v-3.55h3.55v-3.55h3.55v-3.55ZM323.51,71.08h-3.55v-3.55h3.55v3.55ZM351.91,74.63h-3.55v-3.55h3.55v3.55Z"/>
        <path d="M390.26,95.93v28.4h-3.55v3.55h-3.55v3.55h-3.55v3.55h-14.2v-3.55h-3.55v-3.55h-3.55v-3.55h-3.55v-28.4h3.55v-3.55h3.55v-3.55h3.55v-3.55h14.2v3.55h3.55v3.55h3.55v3.55h3.55ZM379.61,127.88v-31.95h-3.55v-3.55h-3.55v-3.55h-3.55v3.55h-3.55v31.95h3.55v3.55h3.55v3.55s3.55,0,3.55,0v-3.55h3.55Z"/>
        <path d="M408.01,127.88v3.55s-3.55,0-3.55,0v3.55h-3.55v3.55h-3.55v-3.55h-3.55v-3.55h-3.55v-3.55h3.55v-3.55h3.55v-3.55h3.55v3.55h3.55v3.55h3.55Z"/>
        <path d="M287.51,127.88v3.55h-3.55v3.55h-3.55v3.55s-3.55,0-3.55,0v-3.55h-3.55v-3.55h-3.55v-3.55h3.55v-3.55h3.55v-3.55h3.55v3.55h3.55v3.55h3.55Z"/>
        <path d="M287.51,106.62v3.55h-3.55v3.55h-3.55v3.55h-3.55v-3.55h-3.55v-3.55h-3.55v-3.55h3.55v-3.55h3.55s0-3.55,0-3.55h3.55v3.55h3.55s0,3.55,0,3.55h3.55Z"/>
        <path d="M60.47,60.44v3.55h-3.55v3.55h-3.55v3.55h-3.55v-3.55h-3.55v-3.55h-3.55v-3.55h3.55v-3.55h3.55v-3.55h3.55v3.55h3.55v3.55h3.55Z"/>
        <path d="M351.91,60.36v3.55h-3.55v3.55h-3.55v3.55h-3.55v-3.55h-3.55v-3.55h-3.55v-3.55h3.55v-3.55h3.55v-3.55h3.55v3.55h3.55s0,3.55,0,3.55h3.55Z"/>
      </g>
      <path d="M202.4,7.1v3.55h-3.55v3.55h-3.55v3.55h-3.55v-3.55h-3.55v-3.55h-3.55v-3.55h3.55v-3.55h3.55V0h3.55v3.55h3.55v3.55h3.55Z"/>
    </g>
  </g>
</svg>